<svg xmlns="http://www.w3.org/2000/svg" viewBox="0 0 600 600">
<defs><radialGradient id="blob15" cx="50%" cy="45%" r="55%">
<stop offset="0%" stop-color="#9DBB92" stop-opacity="0.55"/>
<stop offset="100%" stop-color="#9DBB92" stop-opacity="0"/>
</radialGradient></defs>
<circle cx="300.0" cy="360" r="230" fill="url(#blob15)"/>
<ellipse cx="300.0" cy="506" rx="150" ry="14" fill="#0E1A0F" opacity="0.07"/>
<defs><linearGradient id="sg15_0" x1="0" y1="1" x2="0" y2="0">
<stop offset="0%" stop-color="#9DBB92"/><stop offset="100%" stop-color="#CFE0C4"/>
</linearGradient></defs>
<path d="M 218.1 500 C 221.7 381.4, 232.7 277.6, 242.4 203.5"
stroke="url(#sg15_0)" stroke-width="6.5" fill="none" stroke-linecap="round"
stroke-dasharray="none" />
<path d="M 218.1 500 C 221.7 381.4, 232.7 277.6, 242.4 203.5"
stroke="#5C7A54" stroke-width="7.9" fill="none" stroke-linecap="round" opacity="0.18"/><defs><linearGradient id="sg15_1" x1="0" y1="1" x2="0" y2="0">
<stop offset="0%" stop-color="#9DBB92"/><stop offset="100%" stop-color="#CFE0C4"/>
</linearGradient></defs>
<path d="M 235.8 500 C 233.0 398.9, 224.7 310.5, 217.4 247.4"
stroke="url(#sg15_1)" stroke-width="6.2" fill="none" stroke-linecap="round"
stroke-dasharray="none" />
<path d="M 235.8 500 C 233.0 398.9, 224.7 310.5, 217.4 247.4"
stroke="#5C7A54" stroke-width="7.6" fill="none" stroke-linecap="round" opacity="0.18"/><defs><linearGradient id="sg15_2" x1="0" y1="1" x2="0" y2="0">
<stop offset="0%" stop-color="#9DBB92"/><stop offset="100%" stop-color="#CFE0C4"/>
</linearGradient></defs>
<path d="M 273.7 500 C 270.9 388.5, 262.7 291.0, 255.4 221.3"
stroke="url(#sg15_2)" stroke-width="5.4" fill="none" stroke-linecap="round"
stroke-dasharray="none" />
<path d="M 273.7 500 C 270.9 388.5, 262.7 291.0, 255.4 221.3"
stroke="#5C7A54" stroke-width="6.8" fill="none" stroke-linecap="round" opacity="0.18"/><defs><linearGradient id="sg15_3" x1="0" y1="1" x2="0" y2="0">
<stop offset="0%" stop-color="#9DBB92"/><stop offset="100%" stop-color="#CFE0C4"/>
</linearGradient></defs>
<path d="M 295.9 500 C 300.3 386.1, 313.4 286.4, 325.2 215.2"
stroke="url(#sg15_3)" stroke-width="5.8" fill="none" stroke-linecap="round"
stroke-dasharray="none" />
<path d="M 295.9 500 C 300.3 386.1, 313.4 286.4, 325.2 215.2"
stroke="#5C7A54" stroke-width="7.2" fill="none" stroke-linecap="round" opacity="0.18"/><defs><linearGradient id="sg15_4" x1="0" y1="1" x2="0" y2="0">
<stop offset="0%" stop-color="#9DBB92"/><stop offset="100%" stop-color="#CFE0C4"/>
</linearGradient></defs>
<path d="M 335.0 500 C 330.1 370.3, 315.4 256.8, 302.3 175.8"
stroke="url(#sg15_4)" stroke-width="4.8" fill="none" stroke-linecap="round"
stroke-dasharray="none" />
<path d="M 335.0 500 C 330.1 370.3, 315.4 256.8, 302.3 175.8"
stroke="#5C7A54" stroke-width="6.2" fill="none" stroke-linecap="round" opacity="0.18"/><defs><linearGradient id="sg15_5" x1="0" y1="1" x2="0" y2="0">
<stop offset="0%" stop-color="#9DBB92"/><stop offset="100%" stop-color="#CFE0C4"/>
</linearGradient></defs>
<path d="M 352.5 500 C 352.5 398.0, 352.3 308.7, 352.2 244.9"
stroke="url(#sg15_5)" stroke-width="6.3" fill="none" stroke-linecap="round"
stroke-dasharray="none" />
<path d="M 352.5 500 C 352.5 398.0, 352.3 308.7, 352.2 244.9"
stroke="#5C7A54" stroke-width="7.7" fill="none" stroke-linecap="round" opacity="0.18"/><defs><linearGradient id="sg15_6" x1="0" y1="1" x2="0" y2="0">
<stop offset="0%" stop-color="#9DBB92"/><stop offset="100%" stop-color="#CFE0C4"/>
</linearGradient></defs>
<path d="M 392.1 500 C 392.6 374.7, 394.3 265.1, 395.8 186.7"
stroke="url(#sg15_6)" stroke-width="5.3" fill="none" stroke-linecap="round"
stroke-dasharray="none" />
<path d="M 392.1 500 C 392.6 374.7, 394.3 265.1, 395.8 186.7"
stroke="#5C7A54" stroke-width="6.7" fill="none" stroke-linecap="round" opacity="0.18"/>
<g transform="translate(242.4,203.5) rotate(-37.0)"><path d="M 0 0 C 13.0 -3.9, 13.0 -22.0, 0 -51.8 C -13.0 -22.0, -13.0 -3.9, 0 0 Z" fill="#FBFDF8" stroke="#5C7A54" stroke-width="2.4" stroke-linejoin="round"/><path d="M 0 0 L 0 -42.5" stroke="#5C7A54" stroke-width="1" opacity="0.35"/></g><g transform="translate(242.4,203.5) rotate(36.7)"><path d="M 0 0 C 13.0 -3.9, 13.0 -22.0, 0 -51.8 C -13.0 -22.0, -13.0 -3.9, 0 0 Z" fill="#FBFDF8" stroke="#5C7A54" stroke-width="2.4" stroke-linejoin="round"/><path d="M 0 0 L 0 -42.5" stroke="#5C7A54" stroke-width="1" opacity="0.35"/></g><circle cx="242.4" cy="203.5" r="3.6" fill="#5C7A54" opacity="0.4"/><g transform="translate(217.4,247.4) rotate(-48.6)"><path d="M 0 0 C 14.4 -4.6, 14.4 -26.3, 0 -62.0 C -14.4 -26.3, -14.4 -4.6, 0 0 Z" fill="#F2F7ED" stroke="#5C7A54" stroke-width="2.4" stroke-linejoin="round"/><path d="M 0 0 L 0 -50.8" stroke="#5C7A54" stroke-width="1" opacity="0.35"/></g><g transform="translate(217.4,247.4) rotate(52.2)"><path d="M 0 0 C 14.4 -4.6, 14.4 -26.3, 0 -62.0 C -14.4 -26.3, -14.4 -4.6, 0 0 Z" fill="#F2F7ED" stroke="#5C7A54" stroke-width="2.4" stroke-linejoin="round"/><path d="M 0 0 L 0 -50.8" stroke="#5C7A54" stroke-width="1" opacity="0.35"/></g><circle cx="217.4" cy="247.4" r="3.6" fill="#5C7A54" opacity="0.4"/><g transform="translate(255.4,221.3) rotate(-40.4)"><path d="M 0 0 C 12.2 -4.1, 12.2 -23.3, 0 -54.7 C -12.2 -23.3, -12.2 -4.1, 0 0 Z" fill="#FBFDF8" stroke="#5C7A54" stroke-width="2.4" stroke-linejoin="round"/><path d="M 0 0 L 0 -44.9" stroke="#5C7A54" stroke-width="1" opacity="0.35"/></g><g transform="translate(255.4,221.3) rotate(38.6)"><path d="M 0 0 C 12.2 -4.1, 12.2 -23.3, 0 -54.7 C -12.2 -23.3, -12.2 -4.1, 0 0 Z" fill="#FBFDF8" stroke="#5C7A54" stroke-width="2.4" stroke-linejoin="round"/><path d="M 0 0 L 0 -44.9" stroke="#5C7A54" stroke-width="1" opacity="0.35"/></g><circle cx="255.4" cy="221.3" r="3.6" fill="#5C7A54" opacity="0.4"/><g transform="translate(325.2,215.2) rotate(-30.1)"><path d="M 0 0 C 14.6 -4.1, 14.6 -23.2, 0 -54.5 C -14.6 -23.2, -14.6 -4.1, 0 0 Z" fill="#F2F7ED" stroke="#5C7A54" stroke-width="2.4" stroke-linejoin="round"/><path d="M 0 0 L 0 -44.7" stroke="#5C7A54" stroke-width="1" opacity="0.35"/></g><g transform="translate(325.2,215.2) rotate(41.8)"><path d="M 0 0 C 14.6 -4.1, 14.6 -23.2, 0 -54.5 C -14.6 -23.2, -14.6 -4.1, 0 0 Z" fill="#F2F7ED" stroke="#5C7A54" stroke-width="2.4" stroke-linejoin="round"/><path d="M 0 0 L 0 -44.7" stroke="#5C7A54" stroke-width="1" opacity="0.35"/></g><circle cx="325.2" cy="215.2" r="3.6" fill="#5C7A54" opacity="0.4"/><g transform="translate(302.3,175.8) rotate(-37.4)"><path d="M 0 0 C 14.8 -3.8, 14.8 -21.6, 0 -50.8 C -14.8 -21.6, -14.8 -3.8, 0 0 Z" fill="#FBFDF8" stroke="#5C7A54" stroke-width="2.4" stroke-linejoin="round"/><path d="M 0 0 L 0 -41.6" stroke="#5C7A54" stroke-width="1" opacity="0.35"/></g><g transform="translate(302.3,175.8) rotate(47.3)"><path d="M 0 0 C 14.8 -3.8, 14.8 -21.6, 0 -50.8 C -14.8 -21.6, -14.8 -3.8, 0 0 Z" fill="#FBFDF8" stroke="#5C7A54" stroke-width="2.4" stroke-linejoin="round"/><path d="M 0 0 L 0 -41.6" stroke="#5C7A54" stroke-width="1" opacity="0.35"/></g><circle cx="302.3" cy="175.8" r="3.6" fill="#5C7A54" opacity="0.4"/><g transform="translate(352.2,244.9) rotate(-52.9)"><path d="M 0 0 C 12.3 -3.7, 12.3 -21.1, 0 -49.6 C -12.3 -21.1, -12.3 -3.7, 0 0 Z" fill="#F2F7ED" stroke="#5C7A54" stroke-width="2.4" stroke-linejoin="round"/><path d="M 0 0 L 0 -40.7" stroke="#5C7A54" stroke-width="1" opacity="0.35"/></g><g transform="translate(352.2,244.9) rotate(41.2)"><path d="M 0 0 C 12.3 -3.7, 12.3 -21.1, 0 -49.6 C -12.3 -21.1, -12.3 -3.7, 0 0 Z" fill="#F2F7ED" stroke="#5C7A54" stroke-width="2.4" stroke-linejoin="round"/><path d="M 0 0 L 0 -40.7" stroke="#5C7A54" stroke-width="1" opacity="0.35"/></g><circle cx="352.2" cy="244.9" r="3.6" fill="#5C7A54" opacity="0.4"/><g transform="translate(395.8,186.7) rotate(-31.2)"><path d="M 0 0 C 12.5 -4.2, 12.5 -23.8, 0 -56.0 C -12.5 -23.8, -12.5 -4.2, 0 0 Z" fill="#FBFDF8" stroke="#5C7A54" stroke-width="2.4" stroke-linejoin="round"/><path d="M 0 0 L 0 -45.9" stroke="#5C7A54" stroke-width="1" opacity="0.35"/></g><g transform="translate(395.8,186.7) rotate(38.5)"><path d="M 0 0 C 12.5 -4.2, 12.5 -23.8, 0 -56.0 C -12.5 -23.8, -12.5 -4.2, 0 0 Z" fill="#FBFDF8" stroke="#5C7A54" stroke-width="2.4" stroke-linejoin="round"/><path d="M 0 0 L 0 -45.9" stroke="#5C7A54" stroke-width="1" opacity="0.35"/></g><circle cx="395.8" cy="186.7" r="3.6" fill="#5C7A54" opacity="0.4"/>
</svg>